<?xml version="1.0" encoding="UTF-8" standalone="no"?>
<svg
   xmlns:dc="http://purl.org/dc/elements/1.1/"
   xmlns:cc="http://creativecommons.org/ns#"
   xmlns:rdf="http://www.w3.org/1999/02/22-rdf-syntax-ns#"
   xmlns:svg="http://www.w3.org/2000/svg"
   xmlns="http://www.w3.org/2000/svg"
   id="svg8"
   version="1.1"
   viewBox="0 0 517.10059 450.29481"
   height="450.2948mm"
   width="517.10059mm">
  <defs
     id="defs2" />
  <metadata
     id="metadata5">
    <rdf:RDF>
      <cc:Work
         rdf:about="">
        <dc:format>image/svg+xml</dc:format>
        <dc:type
           rdf:resource="http://purl.org/dc/dcmitype/StillImage" />
        <dc:title></dc:title>
      </cc:Work>
    </rdf:RDF>
  </metadata>
  <path
     id="path7223"
     d="m 278.511,168.16473 30.9363,-30.93634 c 3.4182,-3.4182 3.4182,-8.95983 0,-12.37261 l -4.1242,-4.12428 c -3.4192,-3.41921 -8.9608,-3.41921 -12.3737,0 l -30.9352,30.93533 -30.9364,-30.94169 c -3.4181,-3.41813 -8.9598,-3.41813 -12.3726,0 l -4.1306,4.12421 c -3.4182,3.41921 -3.4182,8.96084 0,12.37369 l 30.9417,30.94169 -30.9353,30.93532 c -3.4192,3.41922 -3.4192,8.96084 0,12.3737 l 4.1242,4.1242 c 3.4181,3.41813 8.9598,3.41813 12.3726,0 l 30.9364,-30.93641 30.9352,30.93641 c 3.4192,3.41813 8.9609,3.41813 12.3737,0 l 4.1242,-4.1242 c 3.4182,-3.41922 3.4182,-8.96092 0,-12.3737 z m 0,0"
     style="fill:#808181;fill-opacity:1;stroke:#000000;stroke-width:0.27345169;stroke-opacity:0.60784314" />
  <g
     id="g7414"
     transform="matrix(0.23333333,0,0,0.23437501,255.9828,236.98439)"
     style="fill:#808181;fill-opacity:1;stroke:#000000;stroke-opacity:0.60784314">
    <g
       id="g7348"
       style="fill:#808181;fill-opacity:1;stroke:#000000;stroke-opacity:0.60784314">
      <g
         id="g7346"
         style="fill:#808181;fill-opacity:1;stroke:#000000;stroke-opacity:0.60784314">
        <path
           id="path7344"
           d="m 256,120 c -33.091,0 -60,26.909 -60,60 0,33.249 26.861,60 60,60 33.733,0 60,-27.255 60,-60 0,-33.091 -26.909,-60 -60,-60 z"
           style="fill:#808181;fill-opacity:1;stroke:#000000;stroke-opacity:0.60784314" />
      </g>
    </g>
    <g
       id="g7354"
       style="fill:#808181;fill-opacity:1;stroke:#000000;stroke-opacity:0.60784314">
      <g
         id="g7352"
         style="fill:#808181;fill-opacity:1;stroke:#000000;stroke-opacity:0.60784314">
        <path
           id="path7350"
           d="M 256,0 C 156.742,0 76,80.742 76,180 c 0,33.53 9.287,66.255 26.851,94.644 l 142.896,230.259 c 5.925,9.569 19.895,9.423 25.635,-0.205 L 410.63,272.212 C 427.211,244.424 436,212.534 436,180 436,80.742 355.258,0 256,0 Z m 0,270.2 c -50.345,0 -90.2,-40.979 -90.2,-90.2 0,-49.629 40.571,-90.2 90.2,-90.2 49.629,0 90.2,40.571 90.2,90.2 0,48.787 -39.319,90.2 -90.2,90.2 z"
           style="fill:#808181;fill-opacity:1;stroke:#000000;stroke-opacity:0.60784314" />
      </g>
    </g>
    <g
       id="g7356"
       style="fill:#808181;fill-opacity:1;stroke:#000000;stroke-opacity:0.60784314" />
    <g
       id="g7358"
       style="fill:#808181;fill-opacity:1;stroke:#000000;stroke-opacity:0.60784314" />
    <g
       id="g7360"
       style="fill:#808181;fill-opacity:1;stroke:#000000;stroke-opacity:0.60784314" />
    <g
       id="g7362"
       style="fill:#808181;fill-opacity:1;stroke:#000000;stroke-opacity:0.60784314" />
    <g
       id="g7364"
       style="fill:#808181;fill-opacity:1;stroke:#000000;stroke-opacity:0.60784314" />
    <g
       id="g7366"
       style="fill:#808181;fill-opacity:1;stroke:#000000;stroke-opacity:0.60784314" />
    <g
       id="g7368"
       style="fill:#808181;fill-opacity:1;stroke:#000000;stroke-opacity:0.60784314" />
    <g
       id="g7370"
       style="fill:#808181;fill-opacity:1;stroke:#000000;stroke-opacity:0.60784314" />
    <g
       id="g7372"
       style="fill:#808181;fill-opacity:1;stroke:#000000;stroke-opacity:0.60784314" />
    <g
       id="g7374"
       style="fill:#808181;fill-opacity:1;stroke:#000000;stroke-opacity:0.60784314" />
    <g
       id="g7376"
       style="fill:#808181;fill-opacity:1;stroke:#000000;stroke-opacity:0.60784314" />
    <g
       id="g7378"
       style="fill:#808181;fill-opacity:1;stroke:#000000;stroke-opacity:0.60784314" />
    <g
       id="g7380"
       style="fill:#808181;fill-opacity:1;stroke:#000000;stroke-opacity:0.60784314" />
    <g
       id="g7382"
       style="fill:#808181;fill-opacity:1;stroke:#000000;stroke-opacity:0.60784314" />
    <g
       id="g7384"
       style="fill:#808181;fill-opacity:1;stroke:#000000;stroke-opacity:0.60784314" />
  </g>
  <path
     id="path7426"
     d="m 8.4199,118.16789 86,50.00004 -86,49.99996 z"
     style="fill:#808181;fill-opacity:1;stroke-width:0.2023803" />
  <path
     id="path7447"
     d="M 68.8886,402.9023 36.5135,371.8686 c -0.8454,-0.8112 -2.1816,-0.8112 -3.027,0 L 1.0793,402.9343 C 0.3936,403.6201 0,404.5648 0,405.5304 c 0,2.0097 1.6363,3.6461 3.646,3.6461 H 8.75 v 27.7086 c 0,2.415 1.96,4.3751 4.375,4.3751 h 12.396 c 1.2075,0 2.1875,-0.98 2.1875,-2.1876 v -18.9583 c 0,-0.4001 0.3263,-0.7296 0.729,-0.7296 h 13.125 c 0.3995,0 0.729,0.3295 0.729,0.7296 v 18.9583 c 0,1.2076 0.98,2.1876 2.1875,2.1876 h 12.396 c 2.415,0 4.375,-1.9601 4.375,-4.3751 v -27.7086 h 5.104 c 2.0096,0 3.646,-1.6364 3.646,-3.6461 0,-0.9656 -0.3936,-1.9103 -1.1114,-2.6281 z m 0,0"
     style="fill:#808181;fill-opacity:1;stroke-width:0.13672021" />
  <g
     id="g7591"
     transform="matrix(0.14914752,0,0,0.14914783,387.5136,377.4895)"
     style="fill:#808181;fill-opacity:1">
    <g
       id="g7531"
       style="fill:#808181;fill-opacity:1">
      <g
         id="g7529"
         style="fill:#808181;fill-opacity:1">
        <g
           id="g7527"
           style="fill:#808181;fill-opacity:1">
          <path
             id="path7521"
             d="M 234.667,0 C 121.646,0 0,20.031 0,64 v 74.667 c 0,54.781 140.333,74.667 234.667,74.667 94.334,0 234.667,-19.885 234.667,-74.667 V 64 C 469.333,20.031 347.688,0 234.667,0 Z m 0,106.667 c -124.229,0 -192,-28.188 -192,-42.667 0,-14.479 67.771,-42.667 192,-42.667 124.229,0 192,28.187 192,42.667 0,14.479 -67.771,42.667 -192,42.667 z"
             style="fill:#808181;fill-opacity:1" />
          <path
             id="path7523"
             d="m 453.212,321.711 c -66.253,39.454 -199.01,40.955 -218.545,40.955 -19.535,0 -152.292,-1.502 -218.545,-40.955 C 8.951,317.441 0,322.372 0,330.717 v 63.949 c 0,49.021 118.052,74.667 234.667,74.667 116.615,0 234.667,-25.646 234.667,-74.667 v -63.949 c -10e-4,-8.345 -8.952,-13.276 -16.122,-9.006 z"
             style="fill:#808181;fill-opacity:1" />
          <path
             id="path7525"
             d="m 453.212,193.711 c -66.253,39.454 -199.01,40.955 -218.545,40.955 -19.535,0 -152.292,-1.502 -218.545,-40.955 C 8.951,189.441 0,194.372 0,202.717 v 63.949 c 0,54.781 140.333,74.667 234.667,74.667 94.334,0 234.667,-19.885 234.667,-74.667 v -63.949 c -10e-4,-8.345 -8.952,-13.276 -16.122,-9.006 z"
             style="fill:#808181;fill-opacity:1" />
        </g>
      </g>
    </g>
    <g
       id="g7533"
       style="fill:#808181;fill-opacity:1" />
    <g
       id="g7535"
       style="fill:#808181;fill-opacity:1" />
    <g
       id="g7537"
       style="fill:#808181;fill-opacity:1" />
    <g
       id="g7539"
       style="fill:#808181;fill-opacity:1" />
    <g
       id="g7541"
       style="fill:#808181;fill-opacity:1" />
    <g
       id="g7543"
       style="fill:#808181;fill-opacity:1" />
    <g
       id="g7545"
       style="fill:#808181;fill-opacity:1" />
    <g
       id="g7547"
       style="fill:#808181;fill-opacity:1" />
    <g
       id="g7549"
       style="fill:#808181;fill-opacity:1" />
    <g
       id="g7551"
       style="fill:#808181;fill-opacity:1" />
    <g
       id="g7553"
       style="fill:#808181;fill-opacity:1" />
    <g
       id="g7555"
       style="fill:#808181;fill-opacity:1" />
    <g
       id="g7557"
       style="fill:#808181;fill-opacity:1" />
    <g
       id="g7559"
       style="fill:#808181;fill-opacity:1" />
    <g
       id="g7561"
       style="fill:#808181;fill-opacity:1" />
  </g>
  <g
     id="g7618"
     transform="matrix(0.21568623,0,0,0.21951974,277.2906,380.2946)"
     style="fill:#808181;fill-opacity:1">
    <path
       id="path7604"
       d="M 401.61719,27.316406 381.57812,16.949219 C 337.22656,-5.65625 284.72656,-5.648438 240.37891,16.972656 L 214,30.617188 V 318.87891 l 17.23047,-8.91407 c 50.09375,-25.55859 109.39844,-25.5664 159.5,-0.0195 3.66015,1.91016 8.05078,1.76953 11.58203,-0.37109 C 405.84375,307.43359 408,303.60547 408,299.47656 V 37.800781 c 0.0117,-4.414062 -2.45313,-8.464843 -6.38281,-10.484375 z m 0,0"
       style="fill:#808181;fill-opacity:1" />
    <path
       id="path7606"
       d="m 26.378906,16.972656 -20,10.34375 C 2.453125,29.335938 -0.0117188,33.386719 0,37.800781 V 299.47656 c 0,4.1211 2.148438,7.94531 5.667969,10.08594 3.519531,2.14453 7.902343,2.29687 11.5625,0.40234 50.09375,-25.55859 109.402341,-25.5664 159.500001,-0.0195 L 194,318.87891 V 30.617188 L 167.57812,16.949219 C 123.22656,-5.65625 70.726562,-5.648438 26.378906,16.972656 Z m 0,0"
       style="fill:#808181;fill-opacity:1" />
  </g>
  <g
     id="g8452"
     transform="matrix(0.70000001,0,0,0.70000001,802.1599,-134.79869)"
     style="fill:#808181;fill-opacity:1">
    <g
       transform="matrix(0.19531288,0,0,0.19531288,-1016.3106,731.15327)"
       id="g7771"
       style="fill:#808181;fill-opacity:1">
      <g
         id="g7696"
         style="fill:#808181;fill-opacity:1">
        <g
           id="g7694"
           style="fill:#808181;fill-opacity:1">
          <path
             d="m 386.965,210.868 c -0.102,-0.117 -0.2,-0.235 -0.298,-0.356 -2.383,-2.934 -5.458,-3.512 -7.078,-3.596 -1.62,-0.085 -4.738,0.178 -7.408,2.852 L 224.454,357.724 c -5.508,5.515 -14.309,5.924 -20.304,0.946 l -62.174,-51.628 c -3.659,-3.039 -8.943,-3.006 -12.562,0.075 -0.046,0.039 -0.091,0.077 -0.139,0.116 L 0,414.596 v 31.978 c 0,36.076 29.349,65.425 65.425,65.425 h 381.149 c 36.076,0 65.425,-29.35 65.425,-65.425 v -91.077 z"
             id="path7692"
             style="fill:#808181;fill-opacity:1" />
        </g>
      </g>
      <g
         id="g7702"
         style="fill:#808181;fill-opacity:1">
        <g
           id="g7700"
           style="fill:#808181;fill-opacity:1">
          <path
             d="m 161.174,93.152 c -23.466,0 -42.557,19.091 -42.557,42.556 0,23.465 19.092,42.556 42.557,42.556 23.466,0 42.556,-19.091 42.556,-42.556 0,-23.466 -19.09,-42.556 -42.556,-42.556 z"
             id="path7698"
             style="fill:#808181;fill-opacity:1" />
        </g>
      </g>
      <g
         id="g7708"
         style="fill:#808181;fill-opacity:1">
        <g
           id="g7706"
           style="fill:#808181;fill-opacity:1">
          <path
             d="M 446.575,0 H 65.425 C 29.351,0 0,29.349 0,65.425 v 309.968 l 109.944,-91.309 c 14.806,-12.535 36.363,-12.646 51.297,-0.245 l 51.59,42.84 138.007,-138.22 c 7.979,-7.989 19.031,-12.236 30.295,-11.662 11.19,0.574 21.664,5.856 28.779,14.501 L 511.998,309.382 V 65.425 C 512,29.349 482.649,0 446.575,0 Z M 161.174,208.421 c -40.095,0 -72.714,-32.619 -72.714,-72.713 0,-40.094 32.621,-72.713 72.714,-72.713 40.095,0 72.713,32.62 72.713,72.713 0,40.094 -32.618,72.713 -72.713,72.713 z"
             id="path7704"
             style="fill:#808181;fill-opacity:1" />
        </g>
      </g>
      <g
         id="g7710"
         style="fill:#808181;fill-opacity:1" />
      <g
         id="g7712"
         style="fill:#808181;fill-opacity:1" />
      <g
         id="g7714"
         style="fill:#808181;fill-opacity:1" />
      <g
         id="g7716"
         style="fill:#808181;fill-opacity:1" />
      <g
         id="g7718"
         style="fill:#808181;fill-opacity:1" />
      <g
         id="g7720"
         style="fill:#808181;fill-opacity:1" />
      <g
         id="g7722"
         style="fill:#808181;fill-opacity:1" />
      <g
         id="g7724"
         style="fill:#808181;fill-opacity:1" />
      <g
         id="g7726"
         style="fill:#808181;fill-opacity:1" />
      <g
         id="g7728"
         style="fill:#808181;fill-opacity:1" />
      <g
         id="g7730"
         style="fill:#808181;fill-opacity:1" />
      <g
         id="g7732"
         style="fill:#808181;fill-opacity:1" />
      <g
         id="g7734"
         style="fill:#808181;fill-opacity:1" />
      <g
         id="g7736"
         style="fill:#808181;fill-opacity:1" />
      <g
         id="g7738"
         style="fill:#808181;fill-opacity:1" />
    </g>
  </g>
  <path
     id="path7795"
     d="m 244.2781,379.8051 h -50.7526 c -5.3064,0 -9.6237,4.6926 -9.6237,10.4602 v 33.7592 c 0,5.7564 4.2985,10.4407 9.5895,10.4602 v 15.3204 l 20.2545,-15.319 h 30.5323 c 5.3063,0 9.6237,-4.6926 9.6237,-10.4616 v -33.7592 c 0,-5.7676 -4.3174,-10.4602 -9.6237,-10.4602 z m -9.1119,39.2324 h -32.5288 v -4.4581 h 32.5288 z m 0,-9.5106 h -32.5288 v -4.458 h 32.5288 z m 0,-9.5105 h -32.5288 v -4.4581 h 32.5288 z m 0,0"
     style="fill:#808181;fill-opacity:1;stroke-width:0.11402936" />
  <g
     id="g7846"
     transform="matrix(0.14102564,0,0,0.13671875,458.998,378.2396)"
     style="fill:#808181;fill-opacity:1">
    <circle
       id="circle7842"
       r="60"
       cy="452"
       cx="256"
       style="fill:#808181;fill-opacity:1" />
    <path
       id="path7844"
       d="M 256,0 C 169.981,0 100,69.981 100,156 v 15 h 120 v -15 c 0,-19.851 16.149,-36 36,-36 19.851,0 36,16.149 36,36 0,10.578 -4.643,20.59 -12.74,27.471 L 196,254.258 V 362 h 120 v -52.258 l 40.976,-34.837 C 391.944,245.191 412,201.853 412,156 412,69.981 342.019,0 256,0 Z"
       style="fill:#808181;fill-opacity:1" />
  </g>
  <path
     id="path7873"
     d="m 242.1858,14.749608 c -19.5352,-19.5353204 -51.1566,-19.5380504 -70.6946,0 -19.5353,19.53539 -19.5383,51.15679 0,70.6949 19.5353,19.535312 51.1564,19.538272 70.6946,0 19.5355,-19.53501 19.5387,-51.15664 0,-70.6949 z m -37.823,29.87794 8.094,3.35249 c 9.0017,3.7286 11.6422,15.34195 5.019,22.4488 -1.8596,1.99179 -4.1229,3.32488 -6.5312,4.02705 v 2.75389 c 0,2.26772 -1.8383,4.10604 -4.106,4.10604 -2.2677,0 -4.106,-1.83832 -4.106,-4.10604 v -2.74828 c -6.1858,-1.80192 -10.4278,-7.51942 -10.4278,-13.93651 0,-2.26764 1.8383,-4.10596 4.106,-4.10596 2.2676,0 4.1059,1.83832 4.1059,4.10596 0,5.64494 6.8388,8.3837 10.7686,4.49395 2.9775,-2.95047 1.8,-7.88999 -1.9708,-9.452 l -8.0939,-3.35249 c -9.0108,-3.73236 -11.6437,-15.36107 -5.0044,-22.46467 1.7274,-1.84946 3.9486,-3.27424 6.5166,-4.02661 v -2.73846 c 0,-2.26772 1.8383,-4.10603 4.106,-4.10603 2.2676,0 4.1059,1.83831 4.1059,4.10603 v 2.74511 c 6.0202,1.77652 10.4279,7.35134 10.4279,13.93946 0,2.26772 -1.8383,4.10603 -4.106,4.10603 -2.2677,0 -4.106,-1.83831 -4.106,-4.10603 0,-5.71824 -7.0446,-8.49044 -10.9442,-4.31302 -2.7119,2.90138 -1.6081,7.71593 2.1464,9.27129 z"
     style="fill:#808181;fill-opacity:1;stroke:#000000;stroke-width:0.19552325;stroke-opacity:0.60784314" />
  <path
     id="path7898"
     d="m 353.2283,14.749648 c -19.5353,-19.5354004 -51.1566,-19.5381004 -70.6946,0 -19.5353,19.5353 -19.5383,51.1567 0,70.69491 19.5352,19.535292 51.1564,19.538192 70.6946,0 19.5355,-19.53511 19.5386,-51.15671 0,-70.69491 z m -22.8338,43.755 c 2.2677,0 4.106,1.8383 4.106,4.106 0,2.2677 -1.8383,4.106 -4.106,4.106 h -8.4074 v 4.2364 c 0,2.2677 -1.8383,4.106 -4.106,4.106 -2.2677,0 -4.106,-1.8383 -4.106,-4.106 v -4.2364 h -8.4075 c -2.2676,0 -4.1059,-1.8383 -4.1059,-4.106 0,-2.2677 1.8383,-4.106 4.1059,-4.106 h 8.4075 v -4.3015 h -8.4075 c -2.2676,0 -4.1059,-1.8383 -4.1059,-4.106 0,-2.2677 1.8383,-4.106 4.1059,-4.106 h 5.2615 l -8.7823,-14.6373 c -1.1667,-1.9445 -0.5361,-4.4666 1.4084,-5.6334 1.9442,-1.1669 4.4663,-0.5362 5.6334,1.4083 l 8.9927,14.9877 8.9924,-14.9877 c 1.1667,-1.9446 3.6892,-2.575 5.6337,-1.4083 1.9444,1.1667 2.575,3.6889 1.4083,5.6334 l -8.7823,14.6373 h 5.2616 c 2.2676,0 4.1059,1.8383 4.1059,4.106 0,2.2677 -1.8383,4.106 -4.1059,4.106 h -8.4075 v 4.3015 z"
     style="fill:#808181;fill-opacity:1;stroke:#000000;stroke-width:0.19552326;stroke-opacity:0.60784314" />
  <g
     style="fill:#808181;fill-opacity:1"
     transform="matrix(0.19555556,0,0,0.1953125,95.2862,118.16803)"
     id="g3326">
    <g
       style="fill:#808181;fill-opacity:1"
       id="g3288">
      <g
         style="fill:#808181;fill-opacity:1"
         id="g3286">
        <path
           style="fill:#808181;fill-opacity:1"
           d="m 256,0 c -74.439,0 -135,60.561 -135,135 0,74.439 60.561,135 135,135 74.439,0 135,-60.561 135,-135 C 391,60.561 330.439,0 256,0 Z"
           id="path3284" />
      </g>
    </g>
    <g
       style="fill:#808181;fill-opacity:1"
       id="g3294">
      <g
         style="fill:#808181;fill-opacity:1"
         id="g3292">
        <path
           style="fill:#808181;fill-opacity:1"
           d="M 423.966,358.195 C 387.006,320.667 338.009,300 286,300 H 226 C 173.992,300 124.994,320.667 88.034,358.195 51.255,395.539 31,444.833 31,497 c 0,8.284 6.716,15 15,15 h 420 c 8.284,0 15,-6.716 15,-15 0,-52.167 -20.255,-101.461 -57.034,-138.805 z"
           id="path3290" />
      </g>
    </g>
    <g
       style="fill:#808181;fill-opacity:1"
       id="g3296" />
    <g
       style="fill:#808181;fill-opacity:1"
       id="g3298" />
    <g
       style="fill:#808181;fill-opacity:1"
       id="g3300" />
    <g
       style="fill:#808181;fill-opacity:1"
       id="g3302" />
    <g
       style="fill:#808181;fill-opacity:1"
       id="g3304" />
    <g
       style="fill:#808181;fill-opacity:1"
       id="g3306" />
    <g
       style="fill:#808181;fill-opacity:1"
       id="g3308" />
    <g
       style="fill:#808181;fill-opacity:1"
       id="g3310" />
    <g
       style="fill:#808181;fill-opacity:1"
       id="g3312" />
    <g
       style="fill:#808181;fill-opacity:1"
       id="g3314" />
    <g
       style="fill:#808181;fill-opacity:1"
       id="g3316" />
    <g
       style="fill:#808181;fill-opacity:1"
       id="g3318" />
    <g
       style="fill:#808181;fill-opacity:1"
       id="g3320" />
    <g
       style="fill:#808181;fill-opacity:1"
       id="g3322" />
    <g
       style="fill:#808181;fill-opacity:1"
       id="g3324" />
  </g>
  <g
     id="g3370"
     transform="matrix(0.19555556,0,0,0.1953125,328.505,118.16803)"
     style="fill:#808181;fill-opacity:1">
    <g
       id="g3332"
       style="fill:#808181;fill-opacity:1">
      <g
         id="g3330"
         style="fill:#808181;fill-opacity:1">
        <path
           id="path3328"
           d="m 256,0 c -74.439,0 -135,60.561 -135,135 0,74.439 60.561,135 135,135 74.439,0 135,-60.561 135,-135 C 391,60.561 330.439,0 256,0 Z"
           style="fill:#808181;fill-opacity:1" />
      </g>
    </g>
    <g
       id="g3338"
       style="fill:#808181;fill-opacity:1">
      <g
         id="g3336"
         style="fill:#808181;fill-opacity:1">
        <path
           id="path3334"
           d="M 423.966,358.195 C 387.006,320.667 338.009,300 286,300 H 226 C 173.992,300 124.994,320.667 88.034,358.195 51.255,395.539 31,444.833 31,497 c 0,8.284 6.716,15 15,15 h 420 c 8.284,0 15,-6.716 15,-15 0,-52.167 -20.255,-101.461 -57.034,-138.805 z"
           style="fill:#808181;fill-opacity:1" />
      </g>
    </g>
    <g
       id="g3340"
       style="fill:#808181;fill-opacity:1" />
    <g
       id="g3342"
       style="fill:#808181;fill-opacity:1" />
    <g
       id="g3344"
       style="fill:#808181;fill-opacity:1" />
    <g
       id="g3346"
       style="fill:#808181;fill-opacity:1" />
    <g
       id="g3348"
       style="fill:#808181;fill-opacity:1" />
    <g
       id="g3350"
       style="fill:#808181;fill-opacity:1" />
    <g
       id="g3352"
       style="fill:#808181;fill-opacity:1" />
    <g
       id="g3354"
       style="fill:#808181;fill-opacity:1" />
    <g
       id="g3356"
       style="fill:#808181;fill-opacity:1" />
    <g
       id="g3358"
       style="fill:#808181;fill-opacity:1" />
    <g
       id="g3360"
       style="fill:#808181;fill-opacity:1" />
    <g
       id="g3362"
       style="fill:#808181;fill-opacity:1" />
    <g
       id="g3364"
       style="fill:#808181;fill-opacity:1" />
    <g
       id="g3366"
       style="fill:#808181;fill-opacity:1" />
    <g
       id="g3368"
       style="fill:#808181;fill-opacity:1" />
  </g>
  <path
     style="fill:#808181;fill-opacity:1;stroke-width:0.2023803"
     d="m 515.8773,118.16776 -86,50.00004 86,49.99996 z"
     id="path3372" />
  <path
     style="fill:#808181;fill-opacity:1;stroke-width:0.19531253"
     d="m 211.5951,236.23226 c -27.5711,0 -50,22.42884 -50,49.99994 0,27.5711 22.4289,50 50,50 27.5711,0 50,-22.4289 50,-50 0,-27.5711 -22.4289,-49.99994 -50,-49.99994 z m 23.7793,75.86204 c -0.8125,0.8126 -1.8791,1.2215 -2.9457,1.2215 -1.0666,0 -2.134,-0.4089 -2.9457,-1.2215 l -20.8336,-20.8328 c -0.7835,-0.779 -1.2207,-1.8379 -1.2207,-2.9457 v -27.0836 c 0,-2.3041 1.8661,-4.1663 4.1664,-4.1663 2.3003,0 4.1664,1.8622 4.1664,4.1663 v 25.3586 l 19.6129,19.6121 c 1.6289,1.6297 1.6289,4.2626 0,5.8914 z m 0,0"
     id="path3374" />
</svg>
