<?xml version="1.0" encoding="UTF-8" standalone="no"?>
<svg
   xmlns:dc="http://purl.org/dc/elements/1.1/"
   xmlns:cc="http://creativecommons.org/ns#"
   xmlns:rdf="http://www.w3.org/1999/02/22-rdf-syntax-ns#"
   xmlns:svg="http://www.w3.org/2000/svg"
   xmlns="http://www.w3.org/2000/svg"
   xmlns:xlink="http://www.w3.org/1999/xlink"
   id="svg8"
   version="1.1"
   viewBox="0 0 51.652279 44.979173"
   height="44.979172mm"
   width="51.652279mm">
  <defs
     id="defs2" />
  <metadata
     id="metadata5">
    <rdf:RDF>
      <cc:Work
         rdf:about="">
        <dc:format>image/svg+xml</dc:format>
        <dc:type
           rdf:resource="http://purl.org/dc/dcmitype/StillImage" />
        <dc:title></dc:title>
      </cc:Work>
    </rdf:RDF>
  </metadata>
  <path
     id="path7223"
     d="m 27.819981,16.797681 3.090173,-3.09018 c 0.341438,-0.34143 0.341438,-0.89498 0,-1.23587 l -0.411959,-0.41197 c -0.341538,-0.34154 -0.895079,-0.34154 -1.235988,0 l -3.090063,3.09008 -3.090184,-3.09072 c -0.341428,-0.34143 -0.894978,-0.34143 -1.235877,0 l -0.412599,0.41196 c -0.341438,0.34154 -0.341438,0.89509 0,1.23599 l 3.090713,3.09071 -3.090073,3.09008 c -0.341538,0.34154 -0.341538,0.89508 0,1.23598 l 0.411959,0.41196 c 0.341428,0.34144 0.894979,0.34144 1.235877,0 l 3.090184,-3.09018 3.090063,3.09018 c 0.341538,0.34144 0.895089,0.34144 1.235988,0 l 0.411959,-0.41196 c 0.341438,-0.34153 0.341438,-0.89509 0,-1.23598 z m 0,0"
     style="fill:#808181;fill-opacity:1;stroke:#000000;stroke-width:0.02731461;stroke-opacity:0.60784314" />
  <g
     id="g7414"
     transform="matrix(0.02330726,0,0,0.02341131,25.569678,23.671961)"
     style="fill:#808181;fill-opacity:1;stroke:#000000;stroke-opacity:0.60784314">
    <g
       id="g7348"
       style="fill:#808181;fill-opacity:1;stroke:#000000;stroke-opacity:0.60784314">
      <g
         id="g7346"
         style="fill:#808181;fill-opacity:1;stroke:#000000;stroke-opacity:0.60784314">
        <path
           id="path7344"
           d="m 256,120 c -33.091,0 -60,26.909 -60,60 0,33.249 26.861,60 60,60 33.733,0 60,-27.255 60,-60 0,-33.091 -26.909,-60 -60,-60 z"
           style="fill:#808181;fill-opacity:1;stroke:#000000;stroke-opacity:0.60784314" />
      </g>
    </g>
    <g
       id="g7354"
       style="fill:#808181;fill-opacity:1;stroke:#000000;stroke-opacity:0.60784314">
      <g
         id="g7352"
         style="fill:#808181;fill-opacity:1;stroke:#000000;stroke-opacity:0.60784314">
        <path
           id="path7350"
           d="M 256,0 C 156.742,0 76,80.742 76,180 c 0,33.53 9.287,66.255 26.851,94.644 l 142.896,230.259 c 5.925,9.569 19.895,9.423 25.635,-0.205 L 410.63,272.212 C 427.211,244.424 436,212.534 436,180 436,80.742 355.258,0 256,0 Z m 0,270.2 c -50.345,0 -90.2,-40.979 -90.2,-90.2 0,-49.629 40.571,-90.2 90.2,-90.2 49.629,0 90.2,40.571 90.2,90.2 0,48.787 -39.319,90.2 -90.2,90.2 z"
           style="fill:#808181;fill-opacity:1;stroke:#000000;stroke-opacity:0.60784314" />
      </g>
    </g>
    <g
       id="g7356"
       style="fill:#808181;fill-opacity:1;stroke:#000000;stroke-opacity:0.60784314" />
    <g
       id="g7358"
       style="fill:#808181;fill-opacity:1;stroke:#000000;stroke-opacity:0.60784314" />
    <g
       id="g7360"
       style="fill:#808181;fill-opacity:1;stroke:#000000;stroke-opacity:0.60784314" />
    <g
       id="g7362"
       style="fill:#808181;fill-opacity:1;stroke:#000000;stroke-opacity:0.60784314" />
    <g
       id="g7364"
       style="fill:#808181;fill-opacity:1;stroke:#000000;stroke-opacity:0.60784314" />
    <g
       id="g7366"
       style="fill:#808181;fill-opacity:1;stroke:#000000;stroke-opacity:0.60784314" />
    <g
       id="g7368"
       style="fill:#808181;fill-opacity:1;stroke:#000000;stroke-opacity:0.60784314" />
    <g
       id="g7370"
       style="fill:#808181;fill-opacity:1;stroke:#000000;stroke-opacity:0.60784314" />
    <g
       id="g7372"
       style="fill:#808181;fill-opacity:1;stroke:#000000;stroke-opacity:0.60784314" />
    <g
       id="g7374"
       style="fill:#808181;fill-opacity:1;stroke:#000000;stroke-opacity:0.60784314" />
    <g
       id="g7376"
       style="fill:#808181;fill-opacity:1;stroke:#000000;stroke-opacity:0.60784314" />
    <g
       id="g7378"
       style="fill:#808181;fill-opacity:1;stroke:#000000;stroke-opacity:0.60784314" />
    <g
       id="g7380"
       style="fill:#808181;fill-opacity:1;stroke:#000000;stroke-opacity:0.60784314" />
    <g
       id="g7382"
       style="fill:#808181;fill-opacity:1;stroke:#000000;stroke-opacity:0.60784314" />
    <g
       id="g7384"
       style="fill:#808181;fill-opacity:1;stroke:#000000;stroke-opacity:0.60784314" />
  </g>
  <path
     id="path7426"
     d="m 0.8410492,11.803581 8.5903908,4.99442 -8.5903908,4.99441 z"
     style="fill:#808181;fill-opacity:1;stroke-width:0.02021542" />
  <path
     id="path7447"
     d="m 6.8811627,40.245211 -3.2338925,-3.0999 c -0.084446,-0.081 -0.2179163,-0.081 -0.3023618,0 l -3.237099,3.1031 C 0.03931602,40.316911 0,40.411271 0,40.507731 c 0,0.20074 0.16344717,0.3642 0.36419261,0.3642 h 0.50982971 v 2.76776 c 0,0.24123 0.19578098,0.43702 0.43701118,0.43702 h 1.2382149 c 0.1206151,0 0.2185056,-0.0979 0.2185056,-0.21851 v -1.89371 c 0,-0.04 0.032593,-0.0729 0.072818,-0.0729 h 1.311034 c 0.039905,0 0.072819,0.0329 0.072819,0.0729 v 1.89371 c 0,0.12062 0.097891,0.21851 0.2185055,0.21851 h 1.238215 c 0.2412301,0 0.4370111,-0.19579 0.4370111,-0.43702 v -2.76776 h 0.5098297 c 0.2007355,0 0.3641926,-0.16346 0.3641926,-0.3642 0,-0.0965 -0.039316,-0.19082 -0.1110162,-0.26252 z m 0,0"
     style="fill:#808181;fill-opacity:1;stroke-width:0.01365674" />
  <g
     id="g7591"
     transform="matrix(0.01489809,0,0,0.01489812,38.708061,37.706771)"
     style="fill:#808181;fill-opacity:1">
    <g
       id="g7531"
       style="fill:#808181;fill-opacity:1">
      <g
         id="g7529"
         style="fill:#808181;fill-opacity:1">
        <g
           id="g7527"
           style="fill:#808181;fill-opacity:1">
          <path
             id="path7521"
             d="M 234.667,0 C 121.646,0 0,20.031 0,64 v 74.667 c 0,54.781 140.333,74.667 234.667,74.667 94.334,0 234.667,-19.885 234.667,-74.667 V 64 C 469.333,20.031 347.688,0 234.667,0 Z m 0,106.667 c -124.229,0 -192,-28.188 -192,-42.667 0,-14.479 67.771,-42.667 192,-42.667 124.229,0 192,28.187 192,42.667 0,14.479 -67.771,42.667 -192,42.667 z"
             style="fill:#808181;fill-opacity:1" />
          <path
             id="path7523"
             d="m 453.212,321.711 c -66.253,39.454 -199.01,40.955 -218.545,40.955 -19.535,0 -152.292,-1.502 -218.545,-40.955 C 8.951,317.441 0,322.372 0,330.717 v 63.949 c 0,49.021 118.052,74.667 234.667,74.667 116.615,0 234.667,-25.646 234.667,-74.667 v -63.949 c -10e-4,-8.345 -8.952,-13.276 -16.122,-9.006 z"
             style="fill:#808181;fill-opacity:1" />
          <path
             id="path7525"
             d="m 453.212,193.711 c -66.253,39.454 -199.01,40.955 -218.545,40.955 -19.535,0 -152.292,-1.502 -218.545,-40.955 C 8.951,189.441 0,194.372 0,202.717 v 63.949 c 0,54.781 140.333,74.667 234.667,74.667 94.334,0 234.667,-19.885 234.667,-74.667 v -63.949 c -10e-4,-8.345 -8.952,-13.276 -16.122,-9.006 z"
             style="fill:#808181;fill-opacity:1" />
        </g>
      </g>
    </g>
    <g
       id="g7533"
       style="fill:#808181;fill-opacity:1" />
    <g
       id="g7535"
       style="fill:#808181;fill-opacity:1" />
    <g
       id="g7537"
       style="fill:#808181;fill-opacity:1" />
    <g
       id="g7539"
       style="fill:#808181;fill-opacity:1" />
    <g
       id="g7541"
       style="fill:#808181;fill-opacity:1" />
    <g
       id="g7543"
       style="fill:#808181;fill-opacity:1" />
    <g
       id="g7545"
       style="fill:#808181;fill-opacity:1" />
    <g
       id="g7547"
       style="fill:#808181;fill-opacity:1" />
    <g
       id="g7549"
       style="fill:#808181;fill-opacity:1" />
    <g
       id="g7551"
       style="fill:#808181;fill-opacity:1" />
    <g
       id="g7553"
       style="fill:#808181;fill-opacity:1" />
    <g
       id="g7555"
       style="fill:#808181;fill-opacity:1" />
    <g
       id="g7557"
       style="fill:#808181;fill-opacity:1" />
    <g
       id="g7559"
       style="fill:#808181;fill-opacity:1" />
    <g
       id="g7561"
       style="fill:#808181;fill-opacity:1" />
  </g>
  <g
     id="g7618"
     transform="matrix(0.02154452,0,0,0.02192745,27.698077,37.986971)"
     style="fill:#808181;fill-opacity:1">
    <path
       id="path7604"
       d="M 401.61719,27.316406 381.57812,16.949219 C 337.22656,-5.65625 284.72656,-5.648438 240.37891,16.972656 L 214,30.617188 V 318.87891 l 17.23047,-8.91407 c 50.09375,-25.55859 109.39844,-25.5664 159.5,-0.0195 3.66015,1.91016 8.05078,1.76953 11.58203,-0.37109 C 405.84375,307.43359 408,303.60547 408,299.47656 V 37.800781 c 0.0117,-4.414062 -2.45313,-8.464843 -6.38281,-10.484375 z m 0,0"
       style="fill:#808181;fill-opacity:1" />
    <path
       id="path7606"
       d="m 26.378906,16.972656 -20,10.34375 C 2.453125,29.335938 -0.0117188,33.386719 0,37.800781 V 299.47656 c 0,4.1211 2.148438,7.94531 5.667969,10.08594 3.519531,2.14453 7.902343,2.29687 11.5625,0.40234 50.09375,-25.55859 109.402341,-25.5664 159.500001,-0.0195 L 194,318.87891 V 30.617188 L 167.57812,16.949219 C 123.22656,-5.65625 70.726562,-5.648438 26.378906,16.972656 Z m 0,0"
       style="fill:#808181;fill-opacity:1" />
  </g>
  <g
     id="g8452"
     transform="matrix(0.06992179,0,0,0.06992179,80.126361,-13.464809)"
     style="fill:#808181;fill-opacity:1">
    <g
       transform="matrix(0.19531288,0,0,0.19531288,-1016.3106,731.15327)"
       id="g7771"
       style="fill:#808181;fill-opacity:1">
      <g
         id="g7696"
         style="fill:#808181;fill-opacity:1">
        <g
           id="g7694"
           style="fill:#808181;fill-opacity:1">
          <path
             d="m 386.965,210.868 c -0.102,-0.117 -0.2,-0.235 -0.298,-0.356 -2.383,-2.934 -5.458,-3.512 -7.078,-3.596 -1.62,-0.085 -4.738,0.178 -7.408,2.852 L 224.454,357.724 c -5.508,5.515 -14.309,5.924 -20.304,0.946 l -62.174,-51.628 c -3.659,-3.039 -8.943,-3.006 -12.562,0.075 -0.046,0.039 -0.091,0.077 -0.139,0.116 L 0,414.596 v 31.978 c 0,36.076 29.349,65.425 65.425,65.425 h 381.149 c 36.076,0 65.425,-29.35 65.425,-65.425 v -91.077 z"
             id="path7692"
             style="fill:#808181;fill-opacity:1" />
        </g>
      </g>
      <g
         id="g7702"
         style="fill:#808181;fill-opacity:1">
        <g
           id="g7700"
           style="fill:#808181;fill-opacity:1">
          <path
             d="m 161.174,93.152 c -23.466,0 -42.557,19.091 -42.557,42.556 0,23.465 19.092,42.556 42.557,42.556 23.466,0 42.556,-19.091 42.556,-42.556 0,-23.466 -19.09,-42.556 -42.556,-42.556 z"
             id="path7698"
             style="fill:#808181;fill-opacity:1" />
        </g>
      </g>
      <g
         id="g7708"
         style="fill:#808181;fill-opacity:1">
        <g
           id="g7706"
           style="fill:#808181;fill-opacity:1">
          <path
             d="M 446.575,0 H 65.425 C 29.351,0 0,29.349 0,65.425 v 309.968 l 109.944,-91.309 c 14.806,-12.535 36.363,-12.646 51.297,-0.245 l 51.59,42.84 138.007,-138.22 c 7.979,-7.989 19.031,-12.236 30.295,-11.662 11.19,0.574 21.664,5.856 28.779,14.501 L 511.998,309.382 V 65.425 C 512,29.349 482.649,0 446.575,0 Z M 161.174,208.421 c -40.095,0 -72.714,-32.619 -72.714,-72.713 0,-40.094 32.621,-72.713 72.714,-72.713 40.095,0 72.713,32.62 72.713,72.713 0,40.094 -32.618,72.713 -72.713,72.713 z"
             id="path7704"
             style="fill:#808181;fill-opacity:1" />
        </g>
      </g>
      <g
         id="g7710"
         style="fill:#808181;fill-opacity:1" />
      <g
         id="g7712"
         style="fill:#808181;fill-opacity:1" />
      <g
         id="g7714"
         style="fill:#808181;fill-opacity:1" />
      <g
         id="g7716"
         style="fill:#808181;fill-opacity:1" />
      <g
         id="g7718"
         style="fill:#808181;fill-opacity:1" />
      <g
         id="g7720"
         style="fill:#808181;fill-opacity:1" />
      <g
         id="g7722"
         style="fill:#808181;fill-opacity:1" />
      <g
         id="g7724"
         style="fill:#808181;fill-opacity:1" />
      <g
         id="g7726"
         style="fill:#808181;fill-opacity:1" />
      <g
         id="g7728"
         style="fill:#808181;fill-opacity:1" />
      <g
         id="g7730"
         style="fill:#808181;fill-opacity:1" />
      <g
         id="g7732"
         style="fill:#808181;fill-opacity:1" />
      <g
         id="g7734"
         style="fill:#808181;fill-opacity:1" />
      <g
         id="g7736"
         style="fill:#808181;fill-opacity:1" />
      <g
         id="g7738"
         style="fill:#808181;fill-opacity:1" />
    </g>
  </g>
  <a
     style="fill:#808181;fill-opacity:1"
     onmouseover="style.fill = &quot;#EA5D79ff&quot; "
     transform="matrix(0.09988826,0,0,0.09988826,0,1.4327528e-6)"
     xlink:href="#posts"
     id="a6680">
    <path
       style="fill:#808181;fill-opacity:1;stroke-width:0.11402936"
       d="m 244.2781,379.8051 h -50.7526 c -5.3064,0 -9.6237,4.6926 -9.6237,10.4602 v 33.7592 c 0,5.7564 4.2985,10.4407 9.5895,10.4602 v 15.3204 l 20.2545,-15.319 h 30.5323 c 5.3063,0 9.6237,-4.6926 9.6237,-10.4616 v -33.7592 c 0,-5.7676 -4.3174,-10.4602 -9.6237,-10.4602 z m -9.1119,39.2324 h -32.5288 v -4.4581 h 32.5288 z m 0,-9.5106 h -32.5288 v -4.458 h 32.5288 z m 0,-9.5105 h -32.5288 v -4.4581 h 32.5288 z m 0,0"
       id="path7795"
       onclick="/#posts" />
  </a>
  <g
     id="g7846"
     transform="matrix(0.01408681,0,0,0.0136566,45.848514,37.781701)"
     style="fill:#808181;fill-opacity:1">
    <circle
       id="circle7842"
       r="60"
       cy="452"
       cx="256"
       style="fill:#808181;fill-opacity:1" />
    <path
       id="path7844"
       d="M 256,0 C 169.981,0 100,69.981 100,156 v 15 h 120 v -15 c 0,-19.851 16.149,-36 36,-36 19.851,0 36,16.149 36,36 0,10.578 -4.643,20.59 -12.74,27.471 L 196,254.258 V 362 h 120 v -52.258 l 40.976,-34.837 C 391.944,245.191 412,201.853 412,156 412,69.981 342.019,0 256,0 Z"
       style="fill:#808181;fill-opacity:1" />
  </g>
  <path
     id="path7873"
     d="m 24.191519,1.4733114 c -1.951337,-1.95134997 -5.109944,-1.95161997 -7.061561,0 -1.951347,1.95136 -1.951646,5.10996 0,7.06159 1.951348,1.9513496 5.109924,1.9516496 7.061561,0 1.951368,-1.95132 1.951687,-5.10995 0,-7.06159 z m -3.778074,2.98446 0.808496,0.33487 c 0.899164,0.37245 1.162919,1.53248 0.501339,2.24237 -0.185752,0.19896 -0.411829,0.33212 -0.65239,0.40226 v 0.27508 c 0,0.22652 -0.183625,0.41014 -0.410141,0.41014 -0.226517,0 -0.410141,-0.18362 -0.410141,-0.41014 v -0.27452 c -0.617889,-0.17999 -1.041615,-0.7511 -1.041615,-1.39209 0,-0.22652 0.183624,-0.41014 0.410141,-0.41014 0.226507,0 0.410131,0.18362 0.410131,0.41014 0,0.56386 0.683116,0.83743 1.075657,0.44889 0.297417,-0.29472 0.179799,-0.78812 -0.19686,-0.94415 l -0.808485,-0.33487 c -0.900074,-0.37282 -1.163069,-1.53439 -0.499881,-2.24396 0.172547,-0.18474 0.394419,-0.32706 0.650932,-0.40221 v -0.27354 c 0,-0.22652 0.183624,-0.41014 0.410141,-0.41014 0.226506,0 0.410131,0.18362 0.410131,0.41014 v 0.27421 c 0.601347,0.17745 1.041625,0.73431 1.041625,1.39238 0,0.22652 -0.183625,0.41015 -0.410141,0.41015 -0.226517,0 -0.410142,-0.18363 -0.410142,-0.41015 0,-0.57118 -0.703672,-0.84809 -1.093197,-0.43082 -0.270887,0.28982 -0.16063,0.77074 0.2144,0.9261 z"
     style="fill:#808181;fill-opacity:1;stroke:#000000;stroke-width:0.01953048;stroke-opacity:0.60784314" />
  <path
     id="path7898"
     d="m 35.283362,1.4733214 c -1.951347,-1.95135997 -5.109944,-1.95162997 -7.061561,0 -1.951347,1.95134 -1.951647,5.10995 0,7.06159 1.951337,1.9513396 5.109924,1.9516296 7.061561,0 1.951367,-1.95133 1.951677,-5.10996 0,-7.06159 z m -2.280829,4.37061 c 0.226517,0 0.410142,0.18362 0.410142,0.41014 0,0.22651 -0.183625,0.41014 -0.410142,0.41014 h -0.8398 v 0.42317 c 0,0.22651 -0.183625,0.41014 -0.410142,0.41014 -0.226516,0 -0.410141,-0.18363 -0.410141,-0.41014 v -0.42317 h -0.83981 c -0.226507,0 -0.410132,-0.18363 -0.410132,-0.41014 0,-0.22652 0.183625,-0.41014 0.410132,-0.41014 h 0.83981 v -0.42967 h -0.83981 c -0.226507,0 -0.410132,-0.18363 -0.410132,-0.41014 0,-0.22652 0.183625,-0.41015 0.410132,-0.41015 h 0.525562 l -0.877249,-1.46209 c -0.11654,-0.19423 -0.05355,-0.44616 0.140683,-0.56271 0.194202,-0.11656 0.446131,-0.0536 0.56271,0.14067 l 0.898265,1.4971 0.898236,-1.4971 c 0.116539,-0.19424 0.368507,-0.25721 0.56274,-0.14067 0.194223,0.11654 0.257213,0.36848 0.140673,0.56271 l -0.877249,1.46209 h 0.525572 c 0.226507,0 0.410131,0.18363 0.410131,0.41015 0,0.22651 -0.183624,0.41014 -0.410131,0.41014 h -0.83981 v 0.42967 z"
     style="fill:#808181;fill-opacity:1;stroke:#000000;stroke-width:0.01953048;stroke-opacity:0.60784314" />
  <g
     style="fill:#808181;fill-opacity:1"
     transform="matrix(0.01953371,0,0,0.01950943,9.5179732,11.803601)"
     id="g3326">
    <g
       style="fill:#808181;fill-opacity:1"
       id="g3288">
      <g
         style="fill:#808181;fill-opacity:1"
         id="g3286">
        <path
           style="fill:#808181;fill-opacity:1"
           d="m 256,0 c -74.439,0 -135,60.561 -135,135 0,74.439 60.561,135 135,135 74.439,0 135,-60.561 135,-135 C 391,60.561 330.439,0 256,0 Z"
           id="path3284" />
      </g>
    </g>
    <g
       style="fill:#808181;fill-opacity:1"
       id="g3294">
      <g
         style="fill:#808181;fill-opacity:1"
         id="g3292">
        <path
           style="fill:#808181;fill-opacity:1"
           d="M 423.966,358.195 C 387.006,320.667 338.009,300 286,300 H 226 C 173.992,300 124.994,320.667 88.034,358.195 51.255,395.539 31,444.833 31,497 c 0,8.284 6.716,15 15,15 h 420 c 8.284,0 15,-6.716 15,-15 0,-52.167 -20.255,-101.461 -57.034,-138.805 z"
           id="path3290" />
      </g>
    </g>
    <g
       style="fill:#808181;fill-opacity:1"
       id="g3296" />
    <g
       style="fill:#808181;fill-opacity:1"
       id="g3298" />
    <g
       style="fill:#808181;fill-opacity:1"
       id="g3300" />
    <g
       style="fill:#808181;fill-opacity:1"
       id="g3302" />
    <g
       style="fill:#808181;fill-opacity:1"
       id="g3304" />
    <g
       style="fill:#808181;fill-opacity:1"
       id="g3306" />
    <g
       style="fill:#808181;fill-opacity:1"
       id="g3308" />
    <g
       style="fill:#808181;fill-opacity:1"
       id="g3310" />
    <g
       style="fill:#808181;fill-opacity:1"
       id="g3312" />
    <g
       style="fill:#808181;fill-opacity:1"
       id="g3314" />
    <g
       style="fill:#808181;fill-opacity:1"
       id="g3316" />
    <g
       style="fill:#808181;fill-opacity:1"
       id="g3318" />
    <g
       style="fill:#808181;fill-opacity:1"
       id="g3320" />
    <g
       style="fill:#808181;fill-opacity:1"
       id="g3322" />
    <g
       style="fill:#808181;fill-opacity:1"
       id="g3324" />
  </g>
  <g
     id="g3370"
     transform="matrix(0.01953371,0,0,0.01950943,32.813794,11.803601)"
     style="fill:#808181;fill-opacity:1">
    <g
       id="g3332"
       style="fill:#808181;fill-opacity:1">
      <g
         id="g3330"
         style="fill:#808181;fill-opacity:1">
        <path
           id="path3328"
           d="m 256,0 c -74.439,0 -135,60.561 -135,135 0,74.439 60.561,135 135,135 74.439,0 135,-60.561 135,-135 C 391,60.561 330.439,0 256,0 Z"
           style="fill:#808181;fill-opacity:1" />
      </g>
    </g>
    <g
       id="g3338"
       style="fill:#808181;fill-opacity:1">
      <g
         id="g3336"
         style="fill:#808181;fill-opacity:1">
        <path
           id="path3334"
           d="M 423.966,358.195 C 387.006,320.667 338.009,300 286,300 H 226 C 173.992,300 124.994,320.667 88.034,358.195 51.255,395.539 31,444.833 31,497 c 0,8.284 6.716,15 15,15 h 420 c 8.284,0 15,-6.716 15,-15 0,-52.167 -20.255,-101.461 -57.034,-138.805 z"
           style="fill:#808181;fill-opacity:1" />
      </g>
    </g>
    <g
       id="g3340"
       style="fill:#808181;fill-opacity:1" />
    <g
       id="g3342"
       style="fill:#808181;fill-opacity:1" />
    <g
       id="g3344"
       style="fill:#808181;fill-opacity:1" />
    <g
       id="g3346"
       style="fill:#808181;fill-opacity:1" />
    <g
       id="g3348"
       style="fill:#808181;fill-opacity:1" />
    <g
       id="g3350"
       style="fill:#808181;fill-opacity:1" />
    <g
       id="g3352"
       style="fill:#808181;fill-opacity:1" />
    <g
       id="g3354"
       style="fill:#808181;fill-opacity:1" />
    <g
       id="g3356"
       style="fill:#808181;fill-opacity:1" />
    <g
       id="g3358"
       style="fill:#808181;fill-opacity:1" />
    <g
       id="g3360"
       style="fill:#808181;fill-opacity:1" />
    <g
       id="g3362"
       style="fill:#808181;fill-opacity:1" />
    <g
       id="g3364"
       style="fill:#808181;fill-opacity:1" />
    <g
       id="g3366"
       style="fill:#808181;fill-opacity:1" />
    <g
       id="g3368"
       style="fill:#808181;fill-opacity:1" />
  </g>
  <path
     style="fill:#808181;fill-opacity:1;stroke-width:0.02021542"
     d="m 51.530088,11.803571 -8.59039,4.99442 8.59039,4.99441 z"
     id="path3372" />
  <path
     style="fill:#808181;fill-opacity:1;stroke-width:0.01950943"
     d="m 21.135867,23.596831 c -2.754029,0 -4.994413,2.24038 -4.994413,4.99441 0,2.75403 2.240384,4.99441 4.994413,4.99441 2.75403,0 4.994414,-2.24038 4.994414,-4.99441 0,-2.75403 -2.240384,-4.99441 -4.994414,-4.99441 z m 2.375273,7.57773 c -0.08116,0.0812 -0.1877,0.12201 -0.29424,0.12201 -0.106541,0 -0.213162,-0.0408 -0.294241,-0.12201 l -2.081032,-2.08096 c -0.07826,-0.0778 -0.121934,-0.18358 -0.121934,-0.29424 v -2.70533 c 0,-0.23015 0.186401,-0.41616 0.416174,-0.41616 0.229773,0 0.416175,0.18601 0.416175,0.41616 v 2.53303 l 1.959098,1.95902 c 0.162708,0.16278 0.162708,0.42578 0,0.58848 z m 0,0"
     id="path3374" />
</svg>
