<?xml version="1.0" encoding="UTF-8" standalone="no"?>
<svg
   xmlns:dc="http://purl.org/dc/elements/1.1/"
   xmlns:cc="http://creativecommons.org/ns#"
   xmlns:rdf="http://www.w3.org/1999/02/22-rdf-syntax-ns#"
   xmlns:svg="http://www.w3.org/2000/svg"
   xmlns="http://www.w3.org/2000/svg"
   width="24.677652mm"
   height="9.9888277mm"
   viewBox="0 0 24.677653 9.9888281"
   version="1.1"
   id="svg8">
  <defs
     id="defs2" />
  <metadata
     id="metadata5">
    <rdf:RDF>
      <cc:Work
         rdf:about="">
        <dc:format>image/svg+xml</dc:format>
        <dc:type
           rdf:resource="http://purl.org/dc/dcmitype/StillImage" />
        <dc:title></dc:title>
      </cc:Work>
    </rdf:RDF>
  </metadata>
  <g
     id="g3326"
     transform="matrix(0.01953371,0,0,0.01950943,-0.60554501,0)"
     style="fill:#808181;fill-opacity:1">
    <g
       id="g3288"
       style="fill:#808181;fill-opacity:1">
      <g
         id="g3286"
         style="fill:#808181;fill-opacity:1">
        <path
           id="path3284"
           d="m 256,0 c -74.439,0 -135,60.561 -135,135 0,74.439 60.561,135 135,135 74.439,0 135,-60.561 135,-135 C 391,60.561 330.439,0 256,0 Z"
           style="fill:#808181;fill-opacity:1" />
      </g>
    </g>
    <g
       id="g3294"
       style="fill:#808181;fill-opacity:1">
      <g
         id="g3292"
         style="fill:#808181;fill-opacity:1">
        <path
           id="path3290"
           d="M 423.966,358.195 C 387.006,320.667 338.009,300 286,300 H 226 C 173.992,300 124.994,320.667 88.034,358.195 51.255,395.539 31,444.833 31,497 c 0,8.284 6.716,15 15,15 h 420 c 8.284,0 15,-6.716 15,-15 0,-52.167 -20.255,-101.461 -57.034,-138.805 z"
           style="fill:#808181;fill-opacity:1" />
      </g>
    </g>
    <g
       id="g3296"
       style="fill:#808181;fill-opacity:1" />
    <g
       id="g3298"
       style="fill:#808181;fill-opacity:1" />
    <g
       id="g3300"
       style="fill:#808181;fill-opacity:1" />
    <g
       id="g3302"
       style="fill:#808181;fill-opacity:1" />
    <g
       id="g3304"
       style="fill:#808181;fill-opacity:1" />
    <g
       id="g3306"
       style="fill:#808181;fill-opacity:1" />
    <g
       id="g3308"
       style="fill:#808181;fill-opacity:1" />
    <g
       id="g3310"
       style="fill:#808181;fill-opacity:1" />
    <g
       id="g3312"
       style="fill:#808181;fill-opacity:1" />
    <g
       id="g3314"
       style="fill:#808181;fill-opacity:1" />
    <g
       id="g3316"
       style="fill:#808181;fill-opacity:1" />
    <g
       id="g3318"
       style="fill:#808181;fill-opacity:1" />
    <g
       id="g3320"
       style="fill:#808181;fill-opacity:1" />
    <g
       id="g3322"
       style="fill:#808181;fill-opacity:1" />
    <g
       id="g3324"
       style="fill:#808181;fill-opacity:1" />
  </g>
  <g
     style="fill:#808181;fill-opacity:1"
     transform="matrix(0.01953371,0,0,0.01950943,15.281938,0)"
     id="g3370">
    <g
       style="fill:#808181;fill-opacity:1"
       id="g3332">
      <g
         style="fill:#808181;fill-opacity:1"
         id="g3330">
        <path
           style="fill:#808181;fill-opacity:1"
           d="m 256,0 c -74.439,0 -135,60.561 -135,135 0,74.439 60.561,135 135,135 74.439,0 135,-60.561 135,-135 C 391,60.561 330.439,0 256,0 Z"
           id="path3328" />
      </g>
    </g>
    <g
       style="fill:#808181;fill-opacity:1"
       id="g3338">
      <g
         style="fill:#808181;fill-opacity:1"
         id="g3336">
        <path
           style="fill:#808181;fill-opacity:1"
           d="M 423.966,358.195 C 387.006,320.667 338.009,300 286,300 H 226 C 173.992,300 124.994,320.667 88.034,358.195 51.255,395.539 31,444.833 31,497 c 0,8.284 6.716,15 15,15 h 420 c 8.284,0 15,-6.716 15,-15 0,-52.167 -20.255,-101.461 -57.034,-138.805 z"
           id="path3334" />
      </g>
    </g>
    <g
       style="fill:#808181;fill-opacity:1"
       id="g3340" />
    <g
       style="fill:#808181;fill-opacity:1"
       id="g3342" />
    <g
       style="fill:#808181;fill-opacity:1"
       id="g3344" />
    <g
       style="fill:#808181;fill-opacity:1"
       id="g3346" />
    <g
       style="fill:#808181;fill-opacity:1"
       id="g3348" />
    <g
       style="fill:#808181;fill-opacity:1"
       id="g3350" />
    <g
       style="fill:#808181;fill-opacity:1"
       id="g3352" />
    <g
       style="fill:#808181;fill-opacity:1"
       id="g3354" />
    <g
       style="fill:#808181;fill-opacity:1"
       id="g3356" />
    <g
       style="fill:#808181;fill-opacity:1"
       id="g3358" />
    <g
       style="fill:#808181;fill-opacity:1"
       id="g3360" />
    <g
       style="fill:#808181;fill-opacity:1"
       id="g3362" />
    <g
       style="fill:#808181;fill-opacity:1"
       id="g3364" />
    <g
       style="fill:#808181;fill-opacity:1"
       id="g3366" />
    <g
       style="fill:#808181;fill-opacity:1"
       id="g3368" />
  </g>
</svg>
