<?xml version="1.0" encoding="UTF-8" standalone="no"?>
<svg
   xmlns:dc="http://purl.org/dc/elements/1.1/"
   xmlns:cc="http://creativecommons.org/ns#"
   xmlns:rdf="http://www.w3.org/1999/02/22-rdf-syntax-ns#"
   xmlns:svg="http://www.w3.org/2000/svg"
   xmlns="http://www.w3.org/2000/svg"
   id="svg8"
   version="1.1"
   viewBox="0 0 21.100063 10.008224"
   height="10.008224mm"
   width="21.100063mm">
  <defs
     id="defs2" />
  <metadata
     id="metadata5">
    <rdf:RDF>
      <cc:Work
         rdf:about="">
        <dc:format>image/svg+xml</dc:format>
        <dc:type
           rdf:resource="http://purl.org/dc/dcmitype/StillImage" />
        <dc:title></dc:title>
      </cc:Work>
    </rdf:RDF>
  </metadata>
  <path
     id="path7873"
     d="m 8.534881,1.4733114 c -1.951337,-1.95134996 -5.109944,-1.95161996 -7.061561,0 -1.95134697,1.95136 -1.95164597,5.10996 0,7.06159 1.951348,1.9513496 5.109924,1.9516496 7.061561,0 1.951368,-1.95132 1.951687,-5.10995 0,-7.06159 z m -3.778074,2.98446 0.808496,0.33487 c 0.899164,0.37245 1.162919,1.53248 0.501339,2.24237 -0.185752,0.19896 -0.411829,0.33212 -0.65239,0.40226 v 0.27508 c 0,0.22652 -0.183625,0.41014 -0.410141,0.41014 -0.226517,0 -0.410141,-0.18362 -0.410141,-0.41014 v -0.27452 c -0.617889,-0.17999 -1.041615,-0.7511 -1.041615,-1.39209 0,-0.22652 0.183624,-0.41014 0.410141,-0.41014 0.226507,0 0.410131,0.18362 0.410131,0.41014 0,0.56386 0.683116,0.83743 1.075657,0.44889 0.297417,-0.29472 0.179799,-0.78812 -0.19686,-0.94415 l -0.808485,-0.33487 c -0.900074,-0.37282 -1.163069,-1.53439 -0.499881,-2.24396 0.172547,-0.18474 0.394419,-0.32706 0.650932,-0.40221 v -0.27354 c 0,-0.22652 0.183624,-0.41014 0.410141,-0.41014 0.226506,0 0.410131,0.18362 0.410131,0.41014 v 0.27421 c 0.601347,0.17745 1.041625,0.73431 1.041625,1.39238 0,0.22652 -0.183625,0.41015 -0.410141,0.41015 -0.226517,0 -0.410142,-0.18363 -0.410142,-0.41015 0,-0.57118 -0.703672,-0.84809 -1.093197,-0.43082 -0.270887,0.28982 -0.16063,0.77074 0.2144,0.9261 z"
     style="fill:#808181;fill-opacity:1;stroke:#000000;stroke-width:0.01953048;stroke-opacity:0.60784314" />
  <path
     id="path7898"
     d="m 19.626724,1.4733214 c -1.951347,-1.95135996 -5.109944,-1.95162996 -7.061561,0 -1.951347,1.95134 -1.951647,5.10995 0,7.06159 1.951337,1.9513396 5.109924,1.9516296 7.061561,0 1.951367,-1.95133 1.951677,-5.10996 0,-7.06159 z m -2.280829,4.37061 c 0.226517,0 0.410142,0.18362 0.410142,0.41014 0,0.22651 -0.183625,0.41014 -0.410142,0.41014 h -0.8398 v 0.42317 c 0,0.22651 -0.183625,0.41014 -0.410142,0.41014 -0.226516,0 -0.410141,-0.18363 -0.410141,-0.41014 v -0.42317 h -0.83981 c -0.226507,0 -0.410132,-0.18363 -0.410132,-0.41014 0,-0.22652 0.183625,-0.41014 0.410132,-0.41014 h 0.83981 v -0.42967 h -0.83981 c -0.226507,0 -0.410132,-0.18363 -0.410132,-0.41014 0,-0.22652 0.183625,-0.41015 0.410132,-0.41015 h 0.525562 l -0.877249,-1.46209 c -0.11654,-0.19423 -0.05355,-0.44616 0.140683,-0.56271 0.194202,-0.11656 0.446131,-0.0536 0.56271,0.14067 l 0.898265,1.4971 0.898236,-1.4971 c 0.116539,-0.19424 0.368507,-0.25721 0.56274,-0.14067 0.194223,0.11654 0.257213,0.36848 0.140673,0.56271 l -0.877249,1.46209 h 0.525572 c 0.226507,0 0.410131,0.18363 0.410131,0.41015 0,0.22651 -0.183624,0.41014 -0.410131,0.41014 h -0.83981 v 0.42967 z"
     style="fill:#808181;fill-opacity:1;stroke:#000000;stroke-width:0.01953048;stroke-opacity:0.60784314" />
</svg>
