<?xml version="1.0" encoding="UTF-8" standalone="no"?>
<svg
   xmlns:dc="http://purl.org/dc/elements/1.1/"
   xmlns:cc="http://creativecommons.org/ns#"
   xmlns:rdf="http://www.w3.org/1999/02/22-rdf-syntax-ns#"
   xmlns:svg="http://www.w3.org/2000/svg"
   xmlns="http://www.w3.org/2000/svg"
   id="svg8"
   version="1.1"
   viewBox="0 0 50.689037 35.669946"
   height="35.669945mm"
   width="50.689037mm">
  <defs
     id="defs2" />
  <metadata
     id="metadata5">
    <rdf:RDF>
      <cc:Work
         rdf:about="">
        <dc:format>image/svg+xml</dc:format>
        <dc:type
           rdf:resource="http://purl.org/dc/dcmitype/StillImage" />
        <dc:title></dc:title>
      </cc:Work>
    </rdf:RDF>
  </metadata>
  <path
     id="path7223"
     d="m 26.978932,16.797681 3.090173,-3.09018 c 0.341438,-0.34143 0.341438,-0.89498 0,-1.23587 l -0.411959,-0.41197 c -0.341538,-0.34154 -0.895079,-0.34154 -1.235988,0 l -3.090063,3.09008 -3.090184,-3.09072 c -0.341428,-0.34143 -0.894978,-0.34143 -1.235877,0 l -0.412599,0.41196 c -0.341438,0.34154 -0.341438,0.89509 0,1.23599 l 3.090713,3.09071 -3.090073,3.09008 c -0.341538,0.34154 -0.341538,0.89508 0,1.23598 l 0.411959,0.41196 c 0.341428,0.34144 0.894979,0.34144 1.235877,0 l 3.090184,-3.09018 3.090063,3.09018 c 0.341538,0.34144 0.895089,0.34144 1.235988,0 l 0.411959,-0.41196 c 0.341438,-0.34153 0.341438,-0.89509 0,-1.23598 z m 0,0"
     style="fill:#808181;fill-opacity:1;stroke:#000000;stroke-width:0.02731461;stroke-opacity:0.60784314" />
  <g
     id="g7414"
     transform="matrix(0.02330726,0,0,0.02341131,24.728629,23.671961)"
     style="fill:#808181;fill-opacity:1;stroke:#000000;stroke-opacity:0.60784314">
    <g
       id="g7348"
       style="fill:#808181;fill-opacity:1;stroke:#000000;stroke-opacity:0.60784314">
      <g
         id="g7346"
         style="fill:#808181;fill-opacity:1;stroke:#000000;stroke-opacity:0.60784314">
        <path
           id="path7344"
           d="m 256,120 c -33.091,0 -60,26.909 -60,60 0,33.249 26.861,60 60,60 33.733,0 60,-27.255 60,-60 0,-33.091 -26.909,-60 -60,-60 z"
           style="fill:#808181;fill-opacity:1;stroke:#000000;stroke-opacity:0.60784314" />
      </g>
    </g>
    <g
       id="g7354"
       style="fill:#808181;fill-opacity:1;stroke:#000000;stroke-opacity:0.60784314">
      <g
         id="g7352"
         style="fill:#808181;fill-opacity:1;stroke:#000000;stroke-opacity:0.60784314">
        <path
           id="path7350"
           d="M 256,0 C 156.742,0 76,80.742 76,180 c 0,33.53 9.287,66.255 26.851,94.644 l 142.896,230.259 c 5.925,9.569 19.895,9.423 25.635,-0.205 L 410.63,272.212 C 427.211,244.424 436,212.534 436,180 436,80.742 355.258,0 256,0 Z m 0,270.2 c -50.345,0 -90.2,-40.979 -90.2,-90.2 0,-49.629 40.571,-90.2 90.2,-90.2 49.629,0 90.2,40.571 90.2,90.2 0,48.787 -39.319,90.2 -90.2,90.2 z"
           style="fill:#808181;fill-opacity:1;stroke:#000000;stroke-opacity:0.60784314" />
      </g>
    </g>
    <g
       id="g7356"
       style="fill:#808181;fill-opacity:1;stroke:#000000;stroke-opacity:0.60784314" />
    <g
       id="g7358"
       style="fill:#808181;fill-opacity:1;stroke:#000000;stroke-opacity:0.60784314" />
    <g
       id="g7360"
       style="fill:#808181;fill-opacity:1;stroke:#000000;stroke-opacity:0.60784314" />
    <g
       id="g7362"
       style="fill:#808181;fill-opacity:1;stroke:#000000;stroke-opacity:0.60784314" />
    <g
       id="g7364"
       style="fill:#808181;fill-opacity:1;stroke:#000000;stroke-opacity:0.60784314" />
    <g
       id="g7366"
       style="fill:#808181;fill-opacity:1;stroke:#000000;stroke-opacity:0.60784314" />
    <g
       id="g7368"
       style="fill:#808181;fill-opacity:1;stroke:#000000;stroke-opacity:0.60784314" />
    <g
       id="g7370"
       style="fill:#808181;fill-opacity:1;stroke:#000000;stroke-opacity:0.60784314" />
    <g
       id="g7372"
       style="fill:#808181;fill-opacity:1;stroke:#000000;stroke-opacity:0.60784314" />
    <g
       id="g7374"
       style="fill:#808181;fill-opacity:1;stroke:#000000;stroke-opacity:0.60784314" />
    <g
       id="g7376"
       style="fill:#808181;fill-opacity:1;stroke:#000000;stroke-opacity:0.60784314" />
    <g
       id="g7378"
       style="fill:#808181;fill-opacity:1;stroke:#000000;stroke-opacity:0.60784314" />
    <g
       id="g7380"
       style="fill:#808181;fill-opacity:1;stroke:#000000;stroke-opacity:0.60784314" />
    <g
       id="g7382"
       style="fill:#808181;fill-opacity:1;stroke:#000000;stroke-opacity:0.60784314" />
    <g
       id="g7384"
       style="fill:#808181;fill-opacity:1;stroke:#000000;stroke-opacity:0.60784314" />
  </g>
  <path
     id="path7426"
     d="M 0,11.803581 8.5903908,16.798001 0,21.792411 Z"
     style="fill:#808181;fill-opacity:1;stroke-width:0.02021542" />
  <path
     id="path7873"
     d="m 23.35047,1.4733114 c -1.951337,-1.95134996 -5.109944,-1.95161996 -7.061561,0 -1.951347,1.95136 -1.951646,5.10996 0,7.06159 1.951348,1.9513496 5.109924,1.9516496 7.061561,0 1.951368,-1.95132 1.951687,-5.10995 0,-7.06159 z m -3.778074,2.98446 0.808496,0.33487 c 0.899164,0.37245 1.162919,1.53248 0.501339,2.24237 -0.185752,0.19896 -0.411829,0.33212 -0.65239,0.40226 v 0.27508 c 0,0.22652 -0.183625,0.41014 -0.410141,0.41014 -0.226517,0 -0.410141,-0.18362 -0.410141,-0.41014 v -0.27452 c -0.617889,-0.17999 -1.041615,-0.7511 -1.041615,-1.39209 0,-0.22652 0.183624,-0.41014 0.410141,-0.41014 0.226507,0 0.410131,0.18362 0.410131,0.41014 0,0.56386 0.683116,0.83743 1.075657,0.44889 0.297417,-0.29472 0.179799,-0.78812 -0.19686,-0.94415 l -0.808485,-0.33487 c -0.900074,-0.37282 -1.163069,-1.53439 -0.499881,-2.24396 0.172547,-0.18474 0.394419,-0.32706 0.650932,-0.40221 v -0.27354 c 0,-0.22652 0.183624,-0.41014 0.410141,-0.41014 0.226506,0 0.410131,0.18362 0.410131,0.41014 v 0.27421 c 0.601347,0.17745 1.041625,0.73431 1.041625,1.39238 0,0.22652 -0.183625,0.41015 -0.410141,0.41015 -0.226517,0 -0.410142,-0.18363 -0.410142,-0.41015 0,-0.57118 -0.703672,-0.84809 -1.093197,-0.43082 -0.270887,0.28982 -0.16063,0.77074 0.2144,0.9261 z"
     style="fill:#808181;fill-opacity:1;stroke:#000000;stroke-width:0.01953048;stroke-opacity:0.60784314" />
  <path
     id="path7898"
     d="m 34.442313,1.4733214 c -1.951347,-1.95135996 -5.109944,-1.95162996 -7.061561,0 -1.951347,1.95134 -1.951647,5.10995 0,7.06159 1.951337,1.9513396 5.109924,1.9516296 7.061561,0 1.951367,-1.95133 1.951677,-5.10996 0,-7.06159 z m -2.280829,4.37061 c 0.226517,0 0.410142,0.18362 0.410142,0.41014 0,0.22651 -0.183625,0.41014 -0.410142,0.41014 h -0.8398 v 0.42317 c 0,0.22651 -0.183625,0.41014 -0.410142,0.41014 -0.226516,0 -0.410141,-0.18363 -0.410141,-0.41014 v -0.42317 h -0.83981 c -0.226507,0 -0.410132,-0.18363 -0.410132,-0.41014 0,-0.22652 0.183625,-0.41014 0.410132,-0.41014 h 0.83981 v -0.42967 h -0.83981 c -0.226507,0 -0.410132,-0.18363 -0.410132,-0.41014 0,-0.22652 0.183625,-0.41015 0.410132,-0.41015 h 0.525562 l -0.877249,-1.46209 c -0.11654,-0.19423 -0.05355,-0.44616 0.140683,-0.56271 0.194202,-0.11656 0.446131,-0.0536 0.56271,0.14067 l 0.898265,1.4971 0.898236,-1.4971 c 0.116539,-0.19424 0.368507,-0.25721 0.56274,-0.14067 0.194223,0.11654 0.257213,0.36848 0.140673,0.56271 l -0.877249,1.46209 h 0.525572 c 0.226507,0 0.410131,0.18363 0.410131,0.41015 0,0.22651 -0.183624,0.41014 -0.410131,0.41014 h -0.83981 v 0.42967 z"
     style="fill:#808181;fill-opacity:1;stroke:#000000;stroke-width:0.01953048;stroke-opacity:0.60784314" />
  <g
     style="fill:#808181;fill-opacity:1"
     transform="matrix(0.01953371,0,0,0.01950943,8.676924,11.803601)"
     id="g3326">
    <g
       style="fill:#808181;fill-opacity:1"
       id="g3288">
      <g
         style="fill:#808181;fill-opacity:1"
         id="g3286">
        <path
           style="fill:#808181;fill-opacity:1"
           d="m 256,0 c -74.439,0 -135,60.561 -135,135 0,74.439 60.561,135 135,135 74.439,0 135,-60.561 135,-135 C 391,60.561 330.439,0 256,0 Z"
           id="path3284" />
      </g>
    </g>
    <g
       style="fill:#808181;fill-opacity:1"
       id="g3294">
      <g
         style="fill:#808181;fill-opacity:1"
         id="g3292">
        <path
           style="fill:#808181;fill-opacity:1"
           d="M 423.966,358.195 C 387.006,320.667 338.009,300 286,300 H 226 C 173.992,300 124.994,320.667 88.034,358.195 51.255,395.539 31,444.833 31,497 c 0,8.284 6.716,15 15,15 h 420 c 8.284,0 15,-6.716 15,-15 0,-52.167 -20.255,-101.461 -57.034,-138.805 z"
           id="path3290" />
      </g>
    </g>
    <g
       style="fill:#808181;fill-opacity:1"
       id="g3296" />
    <g
       style="fill:#808181;fill-opacity:1"
       id="g3298" />
    <g
       style="fill:#808181;fill-opacity:1"
       id="g3300" />
    <g
       style="fill:#808181;fill-opacity:1"
       id="g3302" />
    <g
       style="fill:#808181;fill-opacity:1"
       id="g3304" />
    <g
       style="fill:#808181;fill-opacity:1"
       id="g3306" />
    <g
       style="fill:#808181;fill-opacity:1"
       id="g3308" />
    <g
       style="fill:#808181;fill-opacity:1"
       id="g3310" />
    <g
       style="fill:#808181;fill-opacity:1"
       id="g3312" />
    <g
       style="fill:#808181;fill-opacity:1"
       id="g3314" />
    <g
       style="fill:#808181;fill-opacity:1"
       id="g3316" />
    <g
       style="fill:#808181;fill-opacity:1"
       id="g3318" />
    <g
       style="fill:#808181;fill-opacity:1"
       id="g3320" />
    <g
       style="fill:#808181;fill-opacity:1"
       id="g3322" />
    <g
       style="fill:#808181;fill-opacity:1"
       id="g3324" />
  </g>
  <g
     id="g3370"
     transform="matrix(0.01953371,0,0,0.01950943,31.972745,11.803601)"
     style="fill:#808181;fill-opacity:1">
    <g
       id="g3332"
       style="fill:#808181;fill-opacity:1">
      <g
         id="g3330"
         style="fill:#808181;fill-opacity:1">
        <path
           id="path3328"
           d="m 256,0 c -74.439,0 -135,60.561 -135,135 0,74.439 60.561,135 135,135 74.439,0 135,-60.561 135,-135 C 391,60.561 330.439,0 256,0 Z"
           style="fill:#808181;fill-opacity:1" />
      </g>
    </g>
    <g
       id="g3338"
       style="fill:#808181;fill-opacity:1">
      <g
         id="g3336"
         style="fill:#808181;fill-opacity:1">
        <path
           id="path3334"
           d="M 423.966,358.195 C 387.006,320.667 338.009,300 286,300 H 226 C 173.992,300 124.994,320.667 88.034,358.195 51.255,395.539 31,444.833 31,497 c 0,8.284 6.716,15 15,15 h 420 c 8.284,0 15,-6.716 15,-15 0,-52.167 -20.255,-101.461 -57.034,-138.805 z"
           style="fill:#808181;fill-opacity:1" />
      </g>
    </g>
    <g
       id="g3340"
       style="fill:#808181;fill-opacity:1" />
    <g
       id="g3342"
       style="fill:#808181;fill-opacity:1" />
    <g
       id="g3344"
       style="fill:#808181;fill-opacity:1" />
    <g
       id="g3346"
       style="fill:#808181;fill-opacity:1" />
    <g
       id="g3348"
       style="fill:#808181;fill-opacity:1" />
    <g
       id="g3350"
       style="fill:#808181;fill-opacity:1" />
    <g
       id="g3352"
       style="fill:#808181;fill-opacity:1" />
    <g
       id="g3354"
       style="fill:#808181;fill-opacity:1" />
    <g
       id="g3356"
       style="fill:#808181;fill-opacity:1" />
    <g
       id="g3358"
       style="fill:#808181;fill-opacity:1" />
    <g
       id="g3360"
       style="fill:#808181;fill-opacity:1" />
    <g
       id="g3362"
       style="fill:#808181;fill-opacity:1" />
    <g
       id="g3364"
       style="fill:#808181;fill-opacity:1" />
    <g
       id="g3366"
       style="fill:#808181;fill-opacity:1" />
    <g
       id="g3368"
       style="fill:#808181;fill-opacity:1" />
  </g>
  <path
     style="fill:#808181;fill-opacity:1;stroke-width:0.02021542"
     d="m 50.689039,11.803571 -8.59039,4.99442 8.59039,4.99441 z"
     id="path3372" />
  <path
     style="fill:#808181;fill-opacity:1;stroke-width:0.01950943"
     d="m 20.294818,23.596831 c -2.754029,0 -4.994413,2.24038 -4.994413,4.99441 0,2.75403 2.240384,4.99441 4.994413,4.99441 2.75403,0 4.994414,-2.24038 4.994414,-4.99441 0,-2.75403 -2.240384,-4.99441 -4.994414,-4.99441 z m 2.375273,7.57773 c -0.08116,0.0812 -0.1877,0.12201 -0.29424,0.12201 -0.106541,0 -0.213162,-0.0408 -0.294241,-0.12201 l -2.081032,-2.08096 c -0.07826,-0.0778 -0.121934,-0.18358 -0.121934,-0.29424 v -2.70533 c 0,-0.23015 0.186401,-0.41616 0.416174,-0.41616 0.229773,0 0.416175,0.18601 0.416175,0.41616 v 2.53303 l 1.959098,1.95902 c 0.162708,0.16278 0.162708,0.42578 0,0.58848 z m 0,0"
     id="path3374" />
</svg>
