<?xml version="1.0" encoding="UTF-8" standalone="no"?>
<svg
   xmlns:dc="http://purl.org/dc/elements/1.1/"
   xmlns:cc="http://creativecommons.org/ns#"
   xmlns:rdf="http://www.w3.org/1999/02/22-rdf-syntax-ns#"
   xmlns:svg="http://www.w3.org/2000/svg"
   xmlns="http://www.w3.org/2000/svg"
   width="10.01597mm"
   height="10.015976mm"
   viewBox="0 0 10.01597 10.015976"
   version="1.1"
   id="svg8">
  <defs
     id="defs2" />
  <metadata
     id="metadata5">
    <rdf:RDF>
      <cc:Work
         rdf:about="">
        <dc:format>image/svg+xml</dc:format>
        <dc:type
           rdf:resource="http://purl.org/dc/dcmitype/StillImage" />
        <dc:title></dc:title>
      </cc:Work>
    </rdf:RDF>
  </metadata>
  <path
     style="fill:#808181;fill-opacity:1;stroke:#000000;stroke-width:0.02731461;stroke-opacity:0.60784314"
     d="m 6.6561472,5.0083044 3.090173,-3.09018 c 0.3414378,-0.34143 0.3414378,-0.89498 0,-1.23586995 l -0.411959,-0.41197 c -0.341538,-0.34154 -0.895079,-0.34154 -1.235988,0 L 5.0083102,3.3603644 1.9181262,0.26964445 c -0.341428,-0.34143 -0.894978,-0.34143 -1.23587699,0 l -0.412599,0.41196 c -0.341438,0.34153995 -0.341438,0.89508995 0,1.23598995 l 3.09071299,3.09071 -3.09007299,3.09008 c -0.341538,0.34154 -0.341538,0.89508 0,1.23598 l 0.411959,0.41196 c 0.34142799,0.3414396 0.89497899,0.3414396 1.23587699,0 l 3.090184,-3.09018 3.090063,3.09018 c 0.341538,0.3414396 0.895089,0.3414396 1.235988,0 l 0.411959,-0.41196 c 0.3414378,-0.34153 0.3414378,-0.89509 0,-1.23598 z m 0,0"
     id="path7223" />
</svg>
